<svg width="25" height="25" viewBox="0 0 25 25" fill="none" xmlns="http://www.w3.org/2000/svg">
<circle cx="12.5" cy="12.5" r="12.5" transform="rotate(-180 12.5 12.5)" fill="#2A2A2A"/>
<path d="M11.1701 5.99972C11.3195 5.99922 11.4671 6.03219 11.6021 6.09622C11.737 6.16025 11.856 6.2537 11.9501 6.36973L16.7801 12.3697C16.9272 12.5487 17.0076 12.7731 17.0076 13.0047C17.0076 13.2363 16.9272 13.4608 16.7801 13.6397L11.7801 19.6397C11.6103 19.8439 11.3664 19.9724 11.102 19.9967C10.8376 20.0211 10.5743 19.9395 10.3701 19.7697C10.1659 19.6 10.0374 19.3561 10.0131 19.0916C9.98868 18.8272 10.0703 18.5639 10.2401 18.3597L14.7101 12.9997L10.3901 7.63972C10.2678 7.49294 10.1901 7.3142 10.1662 7.12465C10.1424 6.9351 10.1733 6.74268 10.2553 6.57015C10.3374 6.39762 10.4672 6.25221 10.6293 6.15112C10.7914 6.05003 10.979 5.99749 11.1701 5.99972Z" fill="white"/>
</svg>
