<svg width="19" height="19" viewBox="0 0 19 19" fill="none" xmlns="http://www.w3.org/2000/svg">
<path d="M3.34414 1.60958L9.50014 7.76558L15.6308 1.63491C15.7382 1.52055 15.8677 1.42907 16.0113 1.36595C16.155 1.30283 16.3099 1.26937 16.4668 1.26758C16.8027 1.26758 17.1249 1.40103 17.3625 1.63858C17.6 1.87612 17.7335 2.1983 17.7335 2.53424C17.7364 2.68954 17.7076 2.8438 17.6488 2.98756C17.59 3.13132 17.5024 3.26155 17.3915 3.37024L11.1975 9.50091L17.3915 15.6949C17.6002 15.8991 17.7227 16.1757 17.7335 16.4676C17.7335 16.8035 17.6 17.1257 17.3625 17.3632C17.1249 17.6008 16.8027 17.7342 16.4668 17.7342C16.3054 17.7409 16.1443 17.714 15.9939 17.6551C15.8434 17.5962 15.7068 17.5067 15.5928 17.3922L9.50014 11.2362L3.35681 17.3796C3.24978 17.4901 3.12192 17.5784 2.98061 17.6393C2.8393 17.7001 2.68733 17.7324 2.53347 17.7342C2.19753 17.7342 1.87535 17.6008 1.63781 17.3632C1.40026 17.1257 1.26681 16.8035 1.26681 16.4676C1.26385 16.3123 1.29267 16.158 1.35148 16.0143C1.41029 15.8705 1.49786 15.7403 1.60881 15.6316L7.80281 9.50091L1.60881 3.30691C1.40004 3.10267 1.27762 2.8261 1.26681 2.53424C1.26681 2.1983 1.40026 1.87612 1.63781 1.63858C1.87535 1.40103 2.19753 1.26758 2.53347 1.26758C2.83747 1.27138 3.12881 1.39424 3.34414 1.60958Z" fill="#F9A43F"/>
</svg>
