<svg width="24" height="23" viewBox="0 0 24 23" fill="none" xmlns="http://www.w3.org/2000/svg">
<path d="M18.6038 8.1421C18.6976 7.84265 18.6038 7.62305 18.1607 7.62305H16.6928C16.3192 7.62305 16.1486 7.81302 16.0548 8.02168C16.0548 8.02168 15.3085 9.77268 14.2509 10.908C13.9095 11.2384 13.7535 11.3427 13.5674 11.3427C13.4744 11.3427 13.3392 11.2384 13.3392 10.9389V8.1421C13.3392 7.78276 13.2314 7.62305 12.9201 7.62305H10.6134C10.3805 7.62305 10.2399 7.7892 10.2399 7.94762C10.2399 8.28764 10.7687 8.36621 10.823 9.32447V11.4033C10.823 11.8586 10.738 11.9416 10.5505 11.9416C10.0532 11.9416 8.84294 10.1842 8.12469 8.17237C7.98479 7.78147 7.84355 7.62369 7.4687 7.62369H6.00142C5.58172 7.62369 5.49805 7.81367 5.49805 8.02232C5.49805 8.39712 5.9954 10.2518 7.81477 12.7048C9.02769 14.3798 10.7353 15.2878 12.2909 15.2878C13.2234 15.2878 13.3385 15.0862 13.3385 14.7385V13.4724C13.3385 13.0693 13.4275 12.9881 13.7227 12.9881C13.9396 12.9881 14.3131 13.0937 15.184 13.9007C16.1787 14.8576 16.3433 15.2872 16.9023 15.2872H18.3696C18.7886 15.2872 18.9981 15.0856 18.8776 14.6876C18.7457 14.2916 18.2705 13.7152 17.6399 13.0332C17.2972 12.6442 16.7851 12.2256 16.6292 12.0163C16.4116 11.7465 16.4745 11.6274 16.6292 11.3878C16.6298 11.3885 18.4178 8.96576 18.6038 8.1421V8.1421Z" fill="#F9A43F"/>
<rect x="1.83789" y="1.08887" width="20.8636" height="20.8636" rx="6" stroke="#F9A43F" stroke-width="2"/>
</svg>
